<?xml version="1.0" encoding="UTF-8"?>
<svg version="1.1" xmlns="http://www.w3.org/2000/svg" width="456" height="456">
<path d="M0 0 C3.8718518 0.00256515 7.74370146 0.00017494 11.61555338 -0.00138617 C18.10586336 -0.00319459 24.59616189 -0.00083529 31.08647013 0.00395441 C38.56255328 0.00940828 46.0386092 0.00762086 53.51469171 0.00212801 C59.97290477 -0.00242469 66.43110968 -0.00304356 72.88932383 -0.00043333 C76.72972108 0.00111584 80.57010556 0.0013606 84.41050196 -0.00196981 C88.01726339 -0.00488054 91.62398998 -0.00281465 95.2307477 0.00292444 C97.16673979 0.00485379 99.10273486 0.00192655 101.03872538 -0.00120306 C116.1834325 0.03508178 127.13726376 0.68013217 138.37748575 11.6812005 C143.43149104 18.61114662 144.77873635 25.35134849 144.959517 33.78666925 C145.01405794 35.25868547 145.01405794 35.25868547 145.06970072 36.7604394 C145.18166892 39.86393574 145.2689087 42.96748801 145.35404825 46.0718255 C145.45470407 49.20080399 145.56048709 52.32953134 145.6705308 55.4581933 C145.73717845 57.39778946 145.79750944 59.337615 145.8509202 61.27762079 C145.89150301 62.58522112 145.89150301 62.58522112 145.93290567 63.91923761 C145.96477221 65.07098726 145.96477221 65.07098726 145.99728251 66.24600458 C146.05850959 68.22289232 146.05850959 68.22289232 147.16654825 70.1343255 C147.26195171 71.64368022 147.29728312 73.15711633 147.29936075 74.66948175 C147.30064981 75.56086847 147.30193888 76.45225519 147.303267 77.37065363 C147.29939981 78.30329035 147.29553263 79.23592707 147.29154825 80.1968255 C147.29541544 81.13332941 147.29928263 82.06983332 147.303267 83.03471613 C147.30133341 84.36986261 147.30133341 84.36986261 147.29936075 85.73198175 C147.29823282 86.55190607 147.29710489 87.37183039 147.29594278 88.21660089 C147.16654825 90.1343255 147.16654825 90.1343255 146.16654825 91.1343255 C145.99988159 94.1343255 145.99988159 94.1343255 146.16654825 97.1343255 C146.49654825 97.4643255 146.82654825 97.7943255 147.16654825 98.1343255 C147.23974447 100.83087404 147.25897362 103.50124008 147.22904825 106.1968255 C147.22453653 106.95543879 147.22002481 107.71405207 147.21537638 108.49565363 C147.20355505 110.37524422 147.18561903 112.25479449 147.16654825 114.1343255 C148.16234903 114.02991144 148.16234903 114.02991144 149.178267 113.923388 C150.06127481 113.86924738 150.94428263 113.81510675 151.85404825 113.7593255 C152.72416544 113.68971613 153.59428263 113.62010675 154.490767 113.548388 C157.69529009 114.25010839 159.09536503 115.57231683 161.1097703 118.11900568 C163.28885414 122.27460984 162.81064437 126.89860075 162.725142 131.48198175 C162.72281061 132.57143595 162.72047922 133.66089014 162.71807718 134.7833581 C162.70835656 137.08052158 162.6866086 139.37766169 162.6536088 141.67460871 C162.60416912 145.1882352 162.5921239 148.70046053 162.58647013 152.21440363 C162.57238443 154.44944455 162.55618014 156.68447333 162.537642 158.91948175 C162.5322793 159.96854197 162.5269166 161.01760218 162.52139139 162.09845209 C162.505404 163.07974588 162.4894166 164.06103968 162.47294474 165.07206964 C162.46230494 165.93111399 162.45166513 166.79015833 162.44070292 167.67523432 C162.12628903 170.49543957 161.44743121 172.60356405 160.16654825 175.1343255 C156.90463922 177.11983535 153.85646486 178.2717476 150.16654825 179.1343255 C150.08090616 179.82993586 149.99526407 180.52554621 149.90702677 181.24223566 C149.51567976 184.41476243 149.12238183 187.58704444 148.72904825 190.7593255 C148.52698771 192.4009466 148.52698771 192.4009466 148.32084513 194.07573175 C148.18871622 195.13920832 148.05658731 196.20268488 147.9204545 197.298388 C147.73978434 198.75945978 147.73978434 198.75945978 147.55546427 200.25004816 C147.31002573 202.07026845 147.01574686 203.88516692 146.65408182 205.68590021 C146.01550411 210.20269184 145.99748706 214.63702624 145.97709513 219.19340754 C145.96880182 220.19293955 145.96050852 221.19247156 145.9519639 222.22229242 C145.93459396 224.39112649 145.91941886 226.559979 145.90618753 228.72884226 C145.88500554 232.18996769 145.85798153 235.6510055 145.82951212 239.11207819 C145.76989657 246.49445879 145.71793807 253.87688379 145.66654825 261.2593255 C145.54436897 278.60964234 145.4120231 295.95964714 145.20078897 313.30914545 C145.17899364 315.10746419 145.15802805 316.90579332 145.1381669 318.70413446 C145.08489488 323.45010801 144.99919433 328.19401226 144.88529825 332.939013 C144.87309244 333.98042444 144.86088663 335.02183588 144.84831095 336.09480524 C144.58625409 344.44640086 142.47510985 352.46551257 136.54154825 358.6343255 C135.95115763 359.263388 135.360767 359.8924505 134.75248575 360.5405755 C133.55881415 361.74012726 132.36316354 362.93771021 131.16654825 364.1343255 C132.217819 364.20949396 132.217819 364.20949396 133.29032755 364.28618097 C136.47890621 364.51889313 139.66641764 364.76398231 142.85404825 365.0093255 C143.95684122 365.08795832 145.05963419 365.16659113 146.19584513 365.24760675 C147.79589396 365.37329035 147.79589396 365.37329035 149.428267 365.501513 C150.897194 365.61148615 150.897194 365.61148615 152.3957963 365.72368097 C155.24473637 366.14591352 157.5467684 366.95929256 160.16654825 368.1343255 C159.83654825 368.7943255 159.50654825 369.4543255 159.16654825 370.1343255 C151.69168823 372.27793648 143.6479315 372.68255461 135.92436075 373.220263 C134.13507654 373.34562937 134.13507654 373.34562937 132.30964518 373.47352839 C116.09180918 374.50899393 99.8469617 374.59050136 83.60160685 374.73521662 C80.1870228 374.76737284 76.7725429 374.80693493 73.35804129 374.84678698 C45.26827064 375.17462751 17.19279452 375.26264972 -10.89595175 374.7593255 C-12.08403433 374.73820704 -13.27211691 374.71708857 -14.49620199 374.69533014 C-29.01730295 374.42770326 -43.5226916 374.07674691 -58.02095175 373.1968255 C-59.28109091 373.12222101 -60.54123007 373.04761652 -61.83955526 372.97075129 C-77.03000134 371.94526248 -77.03000134 371.94526248 -83.83345175 370.1343255 C-84.16345175 369.4743255 -84.49345175 368.8143255 -84.83345175 368.1343255 C-75.26816701 364.35855521 -64.94715516 365.00316797 -54.83345175 365.1343255 C-55.50440878 364.40729425 -55.50440878 364.40729425 -56.1889205 363.6655755 C-67.77855591 350.81565991 -68.98360687 340.88344753 -68.97529745 323.89946222 C-68.98050909 322.14312464 -68.98050909 322.14312464 -68.98582602 320.35130548 C-68.99313824 317.82458573 -68.99850757 315.29785975 -69.00211668 312.77113199 C-69.00935254 308.74754132 -69.02473231 304.72406725 -69.04345846 300.70051813 C-69.04979446 299.31247764 -69.0561201 297.92443709 -69.06243563 296.5363965 C-69.06560144 295.84158686 -69.06876725 295.14677722 -69.07202899 294.43091273 C-69.11375735 285.08548351 -69.14698982 275.74009558 -69.15937948 266.39457941 C-69.16785923 260.06269651 -69.19070761 253.73102678 -69.22873515 247.39925063 C-69.24817043 244.06788851 -69.25874115 240.7371121 -69.25590086 237.40565348 C-69.24605762 222.08300523 -70.15043583 207.53015703 -72.97863913 192.45613337 C-73.85588278 187.60312446 -73.99264893 183.05920755 -73.83345175 178.1343255 C-74.82574789 177.97613337 -74.82574789 177.97613337 -75.83809042 177.81474543 C-82.26136327 176.79074541 -82.26136327 176.79074541 -84.44990683 174.27958918 C-86.53636275 169.536372 -86.2614795 165.01133948 -86.23188925 159.8843255 C-86.23475943 158.79345636 -86.2376296 157.70258722 -86.24058676 156.57866144 C-86.24262542 154.27559626 -86.23710948 151.97251368 -86.22456503 149.66948175 C-86.2085093 146.14695199 -86.22442123 142.62556964 -86.243608 139.1030755 C-86.24162553 136.86348964 -86.23778179 134.62390449 -86.23188925 132.3843255 C-86.23796194 131.33212824 -86.24403463 130.27993097 -86.25029135 129.19584894 C-86.1875368 122.66242586 -85.58583443 118.88670818 -80.83345175 114.1343255 C-78.23188925 113.720263 -78.23188925 113.720263 -75.20845175 113.5093255 C-73.70411581 113.39717707 -73.70411581 113.39717707 -72.16938925 113.282763 C-71.01310019 113.20928644 -71.01310019 113.20928644 -69.83345175 113.1343255 C-69.82536489 112.10417322 -69.81727804 111.07402094 -69.80894613 110.01265192 C-69.7312426 100.27357262 -69.64344344 90.53462887 -69.54592466 80.79572725 C-69.49611714 75.7896433 -69.44978644 70.78357888 -69.41157675 65.77739191 C-69.37452671 60.94028471 -69.32811483 56.10334732 -69.27538824 51.26638651 C-69.25694855 49.4269827 -69.24180273 47.58754264 -69.23010778 45.74808359 C-69.05253441 18.76813252 -69.05253441 18.76813252 -59.13032675 8.345263 C-44.58920575 -4.95134764 -18.42966548 -0.01606589 0 0 Z M-38.77095175 19.2593255 C-40.19412166 21.77080181 -40.26019691 23.28935779 -39.83345175 26.1343255 C-38.75011841 28.05099217 -38.75011841 28.05099217 -36.83345175 29.1343255 C-33.98848403 29.56107066 -32.46992806 29.49499541 -29.95845175 28.0718255 C-28.18562992 25.01863235 -29.14109869 22.47020842 -29.83345175 19.1343255 C-34.44354663 17.96423806 -34.44354663 17.96423806 -38.77095175 19.2593255 Z M-10.77095175 19.2593255 C-12.20949182 21.79792564 -12.33607537 23.26219054 -11.83345175 26.1343255 C-10.2372917 28.14398325 -10.2372917 28.14398325 -7.83345175 29.1343255 C-4.46308864 28.89358528 -3.24547154 28.5463453 -0.83345175 26.1343255 C-1.15671728 22.53753484 -1.15671728 22.53753484 -1.83345175 19.1343255 C-6.44354663 17.96423806 -6.44354663 17.96423806 -10.77095175 19.2593255 Z M86.16654825 18.1343255 C85.86802341 23.01073803 85.86802341 23.01073803 87.35404825 27.5718255 C89.09883687 29.35840401 89.09883687 29.35840401 91.72904825 29.5093255 C94.34182934 29.35328686 94.34182934 29.35328686 96.16654825 27.1343255 C96.62661171 24.93181558 96.62661171 24.93181558 96.79154825 22.5093255 C96.91529825 21.0655755 97.03904825 19.6218255 97.16654825 18.1343255 C93.53654825 18.1343255 89.90654825 18.1343255 86.16654825 18.1343255 Z M104.16654825 18.1343255 C103.7070441 23.37308974 103.7070441 23.37308974 105.35404825 28.1343255 C107.79040849 29.47852426 109.42628573 29.48564121 112.16654825 29.1343255 C114.38024876 27.34774794 114.38024876 27.34774794 114.36186075 24.970263 C114.33865763 24.15815363 114.3154545 23.34604425 114.29154825 22.5093255 C114.22967325 20.3437005 114.22967325 20.3437005 114.16654825 18.1343255 C110.86654825 18.1343255 107.56654825 18.1343255 104.16654825 18.1343255 Z M-53.83345175 39.1343255 C-53.83345175 44.4143255 -53.83345175 49.6943255 -53.83345175 55.1343255 C6.88654825 55.1343255 67.60654825 55.1343255 130.16654825 55.1343255 C130.16654825 49.8543255 130.16654825 44.5743255 130.16654825 39.1343255 C69.44654825 39.1343255 8.72654825 39.1343255 -53.83345175 39.1343255 Z M-53.83345175 70.1343255 C-53.83345175 84.9843255 -53.83345175 99.8343255 -53.83345175 115.1343255 C-46.73875184 115.20375533 -39.64526361 115.26331959 -32.55049276 115.29912043 C-30.14452732 115.3140683 -27.73858844 115.33443398 -25.33271933 115.36064386 C-0.17811693 115.6565921 -0.17811693 115.6565921 23.7227006 108.61821222 C32.15362878 104.86504898 38.27437921 103.29198588 47.17558146 106.34208918 C50.76805675 107.80521418 54.26785285 109.42239229 57.76713419 111.09428644 C67.89793538 115.48553726 79.59374068 115.28320131 90.4204545 115.23198175 C91.56191431 115.23056681 92.70337412 115.22915186 93.87942362 115.22769403 C97.49599274 115.22213301 101.1124981 115.20958782 104.72904825 115.1968255 C107.19324006 115.19180546 109.65743285 115.18724344 112.12162638 115.18315363 C118.13664419 115.17303075 124.15152551 115.15344779 130.16654825 115.1343255 C130.16654825 100.2843255 130.16654825 85.4343255 130.16654825 70.1343255 C69.44654825 70.1343255 8.72654825 70.1343255 -53.83345175 70.1343255 Z M22.22904825 128.0718255 C20.13780696 128.62717054 18.04537446 129.1780517 15.9517045 129.72416925 C15.03268351 129.97029963 14.11366251 130.21643 13.16679239 130.47001886 C5.18414855 132.23751613 -2.71976003 132.33572877 -10.86470175 132.45073175 C-12.71219015 132.4819034 -12.71219015 132.4819034 -14.59700155 132.51370478 C-18.50909801 132.57878738 -22.4212583 132.63789244 -26.33345175 132.6968255 C-28.99492519 132.73956449 -31.65637392 132.78366552 -34.31782675 132.82768488 C-40.82296873 132.93442619 -47.3281734 133.0362673 -53.83345175 133.1343255 C-53.91053733 140.61920176 -53.96247802 148.10397296 -53.99824667 155.58915949 C-54.0131834 158.12695881 -54.03354014 160.66473301 -54.05977011 163.20244074 C-54.4426442 201.24210794 -46.43827168 237.66649599 -20.83345175 267.1343255 C-20.13606894 267.95288019 -19.43868612 268.77143488 -18.7201705 269.61479425 C-5.88604742 284.3181857 9.22138942 295.13874022 26.38480997 304.18461847 C27.93554782 305.01119702 29.46177636 305.88343802 30.9829545 306.76323175 C34.58230884 308.60623984 36.89762545 309.39605211 40.912642 308.56791925 C44.17452876 307.32467689 47.11435366 305.82998917 50.16654825 304.1343255 C50.76161173 303.8067425 51.35667521 303.47915949 51.96977091 303.14164972 C81.19177139 286.87333916 103.36787066 263.58264712 117.16654825 233.1343255 C117.44482462 232.52121515 117.72310099 231.9081048 118.00980997 231.27641535 C124.0753865 217.64808619 129.1176321 202.06847163 129.38773966 187.05302668 C129.42249903 185.28671144 129.42249903 185.28671144 129.45796061 183.48471308 C129.47781015 182.22826487 129.4976597 180.97181665 129.51811075 179.67729425 C129.54126352 178.37858896 129.56441629 177.07988367 129.58827066 175.74182367 C129.63652232 173.00428999 129.68149036 170.26672701 129.72416544 167.52910089 C129.77927142 164.01376867 129.84307436 160.49865553 129.90934038 156.98351812 C129.97126861 153.63152045 130.02558678 150.27941244 130.08061075 146.92729425 C130.10450876 145.66072489 130.12840677 144.39415552 130.15302896 143.08920527 C130.16989756 141.92742258 130.18676615 140.7656399 130.20414591 139.56865168 C130.22111521 138.54084085 130.23808451 137.51303003 130.25556803 136.45407343 C130.43109602 134.17238274 130.43109602 134.17238274 129.16654825 133.1343255 C127.49281279 133.03209098 125.81482744 132.99862104 124.1379838 132.9924798 C123.0614303 132.98544535 121.9848768 132.97841089 120.87570047 132.97116327 C119.69679743 132.966999 118.51789438 132.96283472 117.303267 132.95854425 C114.80000381 132.93529978 112.29674862 132.91118075 109.79350138 132.88627863 C105.85342793 132.85151399 101.91363938 132.8220317 97.97343302 132.80839777 C79.0969914 132.73031155 61.60145401 131.41066215 43.553267 125.6499505 C36.0947154 124.03861039 29.40942149 126.14559892 22.22904825 128.0718255 Z M128.16654825 254.1343255 C126.99000965 256.01125784 125.85210129 257.91240938 124.72904825 259.8218255 C115.10815322 275.76746666 102.96496606 289.8033194 88.16654825 301.1343255 C87.23197794 301.87295832 86.29740763 302.61159113 85.334517 303.37260675 C74.36126765 311.87797673 62.64072476 318.58880017 50.22904825 324.7593255 C49.35321085 325.20977228 48.47737345 325.66021906 47.57499552 326.12431574 C42.07262106 328.78133992 38.0896094 330.02762706 32.16654825 328.1343255 C28.94962184 326.89475614 25.91192054 325.41031878 22.85404825 323.8218255 C21.99029581 323.3795965 21.12654337 322.9373675 20.23661661 322.48173761 C5.65088579 314.87150303 -7.61748355 306.1444256 -19.83345175 295.1343255 C-21.29118126 293.90444279 -22.7494339 292.67517958 -24.20845175 291.4468255 C-35.03191732 281.8635487 -43.55739971 269.40271228 -51.337358 257.30229425 C-51.83106894 256.58686457 -52.32477987 255.87143488 -52.83345175 255.1343255 C-53.16345175 255.1343255 -53.49345175 255.1343255 -53.83345175 255.1343255 C-53.83345175 280.8743255 -53.83345175 306.6143255 -53.83345175 333.1343255 C-33.40142673 333.14678287 -33.40142673 333.14678287 -12.96968222 333.0718255 C-10.37997796 333.0895318 -7.79029143 333.11017487 -5.20063925 333.1343255 C-3.89038778 333.11498957 -2.58013632 333.09565363 -1.23018026 333.07573175 C9.40794158 333.23424353 15.48075082 336.42256442 24.16654825 342.1343255 C25.969007 343.15231308 27.77945923 344.15655705 29.60404825 345.1343255 C30.32463419 345.5262005 31.04522013 345.9180755 31.787642 346.3218255 C36.04356165 347.77540725 39.43058096 347.83903356 43.64677286 346.12748957 C46.44876394 344.74390322 49.18400069 343.27530196 51.91654825 341.7593255 C52.86143106 341.25143488 53.80631388 340.74354425 54.7798295 340.220263 C58.33643617 338.29777292 61.80095373 336.37805519 65.16654825 334.1343255 C67.99496317 333.8558526 67.99496317 333.8558526 71.4739213 333.81547785 C73.42560472 333.78567331 73.42560472 333.78567331 75.4167161 333.75526667 C76.83723134 333.7433902 78.25774838 333.73172734 79.678267 333.720263 C81.13130658 333.70155316 82.58433528 333.68197988 84.03735209 333.6615777 C87.85952703 333.61023086 91.6817372 333.57061897 95.50407267 333.53343439 C99.40532526 333.49341063 103.30643095 333.44231089 107.20756388 333.392138 C114.86045792 333.29534856 122.51342297 333.21095362 130.16654825 333.1343255 C130.27338612 306.78153313 130.32644973 280.46655693 129.16654825 254.1343255 C128.83654825 254.1343255 128.50654825 254.1343255 128.16654825 254.1343255 Z " fill="#070707" transform="translate(187.8334517478943,46.86567449569702)"/>
<path d="M0 0 C1.11906738 0.50088135 2.23813477 1.0017627 3.39111328 1.51782227 C4.57302246 2.05850342 5.75493164 2.59918457 6.97265625 3.15625 C17.38428526 7.82213322 27.8122233 11.8343792 38.74584961 15.15625 C40.14589233 15.59130859 40.14589233 15.59130859 41.57421875 16.03515625 C42.39100098 16.2782251 43.2077832 16.52129395 44.04931641 16.77172852 C46.03515625 17.65625 46.03515625 17.65625 48.03515625 20.65625 C50.98821511 43.50360014 40.17224345 70.43688529 26.83984375 88.65625 C19.31362001 98.09680939 11.25169845 106.17668477 1.03515625 112.65625 C-0.18107422 113.43742187 -0.18107422 113.43742187 -1.421875 114.234375 C-7.19203718 117.71752431 -7.19203718 117.71752431 -10.37890625 117.46484375 C-30.44916703 111.18909756 -45.49149992 91.9993749 -54.89453125 74.0625 C-61.98668436 59.60007014 -70.07628726 37.87495555 -66.96484375 21.65625 C-64.09575036 17.25888079 -61.69411184 15.80368258 -56.71484375 14.296875 C-55.47549072 13.90741699 -54.2361377 13.51795898 -52.95922852 13.11669922 C-52.30673126 12.91913025 -51.65423401 12.72156128 -50.98196411 12.51800537 C-47.57716284 11.485392 -44.18959563 10.400538 -40.8046875 9.3046875 C-40.13155014 9.08688629 -39.45841278 8.86908508 -38.76487732 8.64468384 C-31.98821055 6.40810667 -25.54679062 3.54763366 -19.16992188 0.34863281 C-18.0803418 -0.18358887 -18.0803418 -0.18358887 -16.96875 -0.7265625 C-16.35845947 -1.03996582 -15.74816895 -1.35336914 -15.11938477 -1.67626953 C-9.63223621 -3.37619748 -5.0798429 -2.3333409 0 0 Z M-26.15234375 20.84375 C-33.93839229 24.33838099 -41.81917037 27.11657884 -49.96484375 29.65625 C-49.63484375 32.29625 -49.30484375 34.93625 -48.96484375 37.65625 C-38.40484375 37.65625 -27.84484375 37.65625 -16.96484375 37.65625 C-16.96484375 31.05625 -16.96484375 24.45625 -16.96484375 17.65625 C-20.29825125 17.65625 -23.16216028 19.47733994 -26.15234375 20.84375 Z M-1.96484375 17.65625 C-1.96484375 24.25625 -1.96484375 30.85625 -1.96484375 37.65625 C8.92515625 37.65625 19.81515625 37.65625 31.03515625 37.65625 C31.36515625 35.34625 31.69515625 33.03625 32.03515625 30.65625 C27.73091078 28.37559313 23.49149963 26.73948533 18.84765625 25.28125 C13.05894644 23.42671226 7.58618761 21.23485268 2.109375 18.57421875 C0.10838478 17.52135003 0.10838478 17.52135003 -1.96484375 17.65625 Z M-44.96484375 51.65625 C-46.24727595 53.6527562 -46.24727595 53.6527562 -45.29296875 55.93359375 C-44.9371875 56.81144531 -44.58140625 57.68929687 -44.21484375 58.59375 C-43.869375 59.46902344 -43.52390625 60.34429687 -43.16796875 61.24609375 C-41.94497023 63.69606157 -41.10514481 64.97768826 -38.96484375 66.65625 C-36.54916498 67.0690782 -36.54916498 67.0690782 -33.859375 66.94921875 C-32.38500977 66.9347168 -32.38500977 66.9347168 -30.88085938 66.91992188 C-29.85669922 66.89478516 -28.83253906 66.86964844 -27.77734375 66.84375 C-26.74158203 66.83021484 -25.70582031 66.81667969 -24.63867188 66.80273438 C-22.08050763 66.76736805 -19.52261046 66.71356096 -16.96484375 66.65625 C-16.96484375 61.70625 -16.96484375 56.75625 -16.96484375 51.65625 C-26.20484375 51.65625 -35.44484375 51.65625 -44.96484375 51.65625 Z M-1.96484375 51.65625 C-1.96484375 56.27625 -1.96484375 60.89625 -1.96484375 65.65625 C-0.94847398 66.89546211 -0.94847398 66.89546211 1.16821289 66.76977539 C2.08465576 66.76453857 3.00109863 66.75930176 3.9453125 66.75390625 C4.93466797 66.75068359 5.92402344 66.74746094 6.94335938 66.74414062 C8.50473633 66.73157227 8.50473633 66.73157227 10.09765625 66.71875 C11.14244141 66.71423828 12.18722656 66.70972656 13.26367188 66.70507812 C15.85422285 66.69324913 18.44466184 66.67676689 21.03515625 66.65625 C21.61040039 65.57766724 21.61040039 65.57766724 22.19726562 64.47729492 C23.56933594 61.90466309 23.56933594 61.90466309 24.94140625 59.33203125 C26.35046437 56.36665304 26.35046437 56.36665304 26.03515625 51.65625 C16.79515625 51.65625 7.55515625 51.65625 -1.96484375 51.65625 Z M-30.96484375 80.65625 C-28.95809547 84.66974655 -27.2653797 86.47030813 -23.96484375 89.40625 C-23.07796875 90.20546875 -22.19109375 91.0046875 -21.27734375 91.828125 C-19.19465677 93.86296991 -19.19465677 93.86296991 -16.96484375 93.65625 C-16.96484375 89.36625 -16.96484375 85.07625 -16.96484375 80.65625 C-21.58484375 80.65625 -26.20484375 80.65625 -30.96484375 80.65625 Z M-1.96484375 80.65625 C-1.96484375 84.94625 -1.96484375 89.23625 -1.96484375 93.65625 C1.56385971 91.89189827 3.81582585 90.29886227 6.72265625 87.71875 C7.90408203 86.68427734 7.90408203 86.68427734 9.109375 85.62890625 C11.25802984 83.71500824 11.25802984 83.71500824 12.03515625 80.65625 C7.41515625 80.65625 2.79515625 80.65625 -1.96484375 80.65625 Z " fill="#080808" transform="translate(234.96484375,194.34375)"/>
</svg>
