<?xml version="1.0" standalone="no"?>
<!DOCTYPE svg PUBLIC "-//W3C//DTD SVG 20010904//EN"
 "http://www.w3.org/TR/2001/REC-SVG-20010904/DTD/svg10.dtd">
<svg version="1.0" xmlns="http://www.w3.org/2000/svg"
 width="290.000000pt" height="290.000000pt" viewBox="0 0 290.000000 290.000000"
 preserveAspectRatio="xMidYMid meet">
<metadata>
Created by potrace 1.16, written by Peter Selinger 2001-2019
</metadata>
<g transform="translate(0.000000,290.000000) scale(0.100000,-0.100000)"
fill="#000000" stroke="none">
<path d="M328 2881 c-145 -47 -269 -174 -312 -320 -14 -48 -16 -169 -16 -1033
l0 -978 22 -4 c13 -3 68 -14 124 -26 55 -11 147 -36 204 -55 57 -19 109 -35
116 -35 17 0 62 132 73 212 6 41 6 93 0 133 -9 63 -19 95 -73 220 -35 81 -36
179 -2 250 35 75 163 235 188 235 4 0 8 -51 8 -114 0 -149 17 -203 85 -272
153 -157 417 -109 506 91 17 37 23 76 27 150 8 200 -54 349 -234 562 -166 196
-179 347 -52 595 l32 63 13 -65 c29 -143 91 -226 316 -424 170 -150 310 -290
380 -383 89 -117 176 -282 208 -393 7 -25 14 -47 16 -49 1 -2 20 8 42 23 78
54 121 147 121 263 0 34 4 63 9 63 19 0 128 -130 154 -184 20 -41 27 -70 27
-114 0 -102 -30 -160 -157 -310 -135 -157 -170 -237 -143 -325 36 -122 235
-206 386 -162 46 13 69 27 105 64 64 67 80 117 86 284 3 75 8 137 10 137 2 0
26 -11 54 -25 119 -61 184 -159 184 -280 0 -38 -3 -85 -7 -102 -7 -30 -5 -33
16 -33 60 0 56 -79 56 984 0 865 -2 978 -16 1027 -48 160 -158 277 -312 328
-61 21 -74 21 -1124 20 -1003 0 -1066 -1 -1120 -18z m1266 -143 c4 -23 28 -94
53 -157 43 -106 47 -124 47 -201 1 -70 -3 -93 -22 -127 -12 -24 -29 -43 -36
-43 -20 0 -72 68 -103 137 -45 96 -36 228 24 391 9 23 19 42 23 42 4 0 10 -19
14 -42z m-1386 -1828 c27 -63 52 -130 56 -149 7 -40 -6 -93 -35 -140 l-20 -34
-46 44 c-52 51 -69 80 -83 144 -13 59 1 147 38 229 21 47 27 55 33 40 4 -11
30 -71 57 -134z"/>
</g>
</svg>
