<?xml version="1.0" standalone="no"?>
<!DOCTYPE svg PUBLIC "-//W3C//DTD SVG 20010904//EN"
 "http://www.w3.org/TR/2001/REC-SVG-20010904/DTD/svg10.dtd">
<svg version="1.0" xmlns="http://www.w3.org/2000/svg"
 width="48.000000pt" height="48.000000pt" viewBox="0 0 48.000000 48.000000"
 preserveAspectRatio="xMidYMid meet">
<metadata>
Created by potrace 1.16, written by Peter Selinger 2001-2019
</metadata>
<g transform="translate(0.000000,48.000000) scale(0.100000,-0.100000)"
fill="#000000" stroke="none">
<path d="M0 240 l0 -240 240 0 240 0 0 240 0 240 -240 0 -240 0 0 -240z m148
73 c22 -59 44 -109 48 -110 8 -3 29 62 41 130 3 15 8 27 12 27 4 0 18 -27 32
-59 13 -33 28 -61 33 -63 4 -1 13 13 20 32 8 25 18 36 35 38 16 3 22 0 18 -10
-3 -7 -18 -52 -34 -100 -15 -48 -30 -88 -33 -88 -3 0 -16 25 -29 55 -13 30
-27 55 -32 55 -8 0 -49 -121 -49 -146 0 -39 -19 -2 -59 114 -56 162 -58 167
-77 151 -9 -8 -14 -8 -14 -1 0 17 33 82 41 82 3 0 25 -48 47 -107z"/>
</g>
</svg>
