<?xml version="1.0" standalone="no"?>
<!DOCTYPE svg PUBLIC "-//W3C//DTD SVG 20010904//EN"
 "http://www.w3.org/TR/2001/REC-SVG-20010904/DTD/svg10.dtd">
<svg version="1.0" xmlns="http://www.w3.org/2000/svg"
 width="1024.000000pt" height="1024.000000pt" viewBox="0 0 1024.000000 1024.000000"
 preserveAspectRatio="xMidYMid meet">
<metadata>
Created by potrace 1.16, written by Peter Selinger 2001-2019
</metadata>
<g transform="translate(0.000000,1024.000000) scale(0.100000,-0.100000)"
fill="#000000" stroke="none">
<path d="M3285 9170 c-158 -14 -289 -75 -404 -190 -87 -87 -129 -153 -167
-260 -38 -107 -42 -232 -43 -1210 0 -459 0 -845 -1 -857 0 -21 -4 -22 -129
-25 -127 -3 -130 -4 -168 -34 -21 -16 -47 -48 -58 -70 -19 -37 -20 -62 -23
-598 l-2 -558 24 -53 c32 -70 81 -104 176 -118 l70 -11 0 -42 c0 -129 64 -591
101 -728 7 -26 12 -508 14 -1475 4 -1608 -2 -1490 78 -1651 32 -65 60 -103
122 -166 44 -44 93 -90 110 -101 l29 -21 -99 -6 c-375 -25 -561 -48 -587 -74
-25 -25 21 -49 120 -63 318 -46 1046 -78 1789 -79 327 0 372 -2 367 -15 -4 -9
0 -15 10 -15 10 0 13 6 10 15 -6 14 28 15 284 15 244 -1 291 -3 296 -16 3 -7
10 -14 15 -14 6 0 8 7 5 15 -6 14 43 15 417 15 233 0 568 3 744 7 176 5 379 8
452 8 72 0 129 3 127 6 -2 3 76 9 174 13 97 4 193 9 212 11 19 2 100 9 179 15
154 11 170 14 243 36 94 30 60 63 -87 83 -98 14 -439 41 -515 41 -51 1 -53 2
-35 15 164 120 256 249 308 433 l22 77 5 1450 5 1450 37 191 c31 156 68 464
68 561 0 19 4 21 34 16 46 -7 135 21 173 56 71 66 68 34 71 655 l3 559 -26 54
c-15 29 -43 66 -62 81 -34 25 -45 27 -145 30 l-108 4 0 171 c0 170 0 173 -25
199 -35 38 -35 111 0 144 l25 23 0 225 c0 223 0 225 -24 253 l-24 29 -5 459
c-3 369 -7 471 -19 515 -39 143 -90 230 -192 330 -73 71 -134 112 -221 148
-130 53 -94 52 -1950 51 -946 -1 -1756 -5 -1800 -9z m215 -395 c47 -24 70 -62
70 -116 0 -133 -177 -174 -234 -54 -31 64 -12 130 47 165 38 24 78 25 117 5z
m663 -23 c24 -25 31 -41 35 -84 4 -47 1 -58 -23 -86 -14 -17 -43 -37 -64 -43
-33 -10 -45 -8 -85 9 -69 31 -95 105 -61 173 39 74 139 90 198 31z m2225 -67
c-3 -87 -5 -97 -29 -121 -54 -53 -164 -35 -189 32 -6 14 -10 61 -10 105 l0 79
116 0 116 0 -4 -95z m401 18 c-1 -102 -8 -123 -48 -150 -42 -28 -86 -29 -129
-3 -42 26 -52 54 -52 151 l0 79 115 0 115 0 -1 -77z m341 -578 l0 -185 -2060
0 -2060 0 0 185 0 185 2060 0 2060 0 0 -185z m0 -1016 l0 -511 -587 5 c-358 3
-619 10 -668 17 -234 33 -440 91 -643 181 -76 34 -151 61 -168 61 -18 0 -72
-18 -120 -40 -280 -125 -526 -190 -814 -212 -90 -7 -330 -10 -630 -8 l-485 3
-3 508 -2 507 2060 0 2060 0 0 -511z m-1845 -784 c169 -49 343 -86 520 -111
100 -15 218 -18 723 -22 l604 -3 -5 -622 c-4 -572 -6 -632 -25 -747 -60 -361
-179 -719 -343 -1038 -298 -578 -696 -993 -1281 -1336 -160 -93 -368 -191
-409 -191 -25 0 -81 22 -174 68 -711 349 -1199 814 -1519 1446 -204 404 -322
796 -356 1191 -5 63 -10 366 -10 672 l0 557 603 4 c646 4 667 6 951 63 71 14
204 47 295 74 91 26 175 50 186 52 23 5 37 2 240 -57z m1845 -3735 l1 -890
-720 0 -720 0 -93 -57 c-124 -75 -397 -215 -476 -243 -61 -22 -63 -22 -110 -5
-76 29 -352 169 -471 240 l-110 65 -710 0 -711 0 1 893 c0 694 3 888 12 874 7
-10 49 -76 94 -147 388 -608 888 -1047 1603 -1405 187 -94 308 -145 343 -145
41 0 136 39 337 140 305 152 531 292 761 472 386 302 676 632 915 1040 21 36
42 64 46 62 4 -2 7 -405 8 -894z"/>
<path d="M4990 5921 c-30 -10 -127 -53 -215 -96 -263 -127 -501 -217 -770
-290 -131 -36 -143 -41 -181 -81 -45 -46 -67 -111 -59 -175 2 -19 9 -79 15
-134 22 -198 110 -534 197 -750 116 -289 331 -611 530 -795 186 -172 475 -360
552 -360 41 0 104 29 216 100 488 307 811 758 984 1372 67 239 102 426 104
566 2 73 -2 95 -21 134 -13 27 -38 56 -56 68 -18 11 -114 43 -212 71 -225 63
-464 155 -715 275 -177 84 -256 114 -299 113 -8 0 -40 -8 -70 -18z m-90 -666
l0 -235 -359 0 -359 0 -12 53 c-6 28 -13 70 -17 92 l-5 40 128 36 c175 50 303
99 469 179 77 38 143 69 148 69 4 1 7 -105 7 -234z m448 181 c160 -80 368
-157 570 -212 35 -9 66 -23 69 -30 3 -7 -3 -49 -13 -94 l-17 -80 -363 0 -364
0 0 235 c0 129 2 235 5 235 3 0 54 -24 113 -54z m-448 -888 l0 -163 -256 0
c-292 0 -263 -10 -316 104 -29 61 -78 195 -78 213 0 4 146 8 325 8 l325 0 0
-162z m975 150 c-2 -7 -11 -38 -20 -68 -10 -30 -38 -99 -63 -154 l-46 -98 -51
6 c-27 3 -143 6 -257 6 l-208 0 0 160 0 160 325 0 c255 0 324 -3 320 -12z
m-975 -783 c0 -153 0 -156 -20 -145 -57 31 -257 211 -301 273 l-20 27 170 0
171 0 0 -155z m651 137 c-14 -27 -220 -222 -274 -260 l-47 -33 0 155 0 156
165 0 c156 0 165 -1 156 -18z"/>
</g>
</svg>
